<?xml version="1.0" encoding="utf-8"?>
<!-- Generator: Adobe Illustrator 24.3.0, SVG Export Plug-In . SVG Version: 6.00 Build 0)  -->
<svg version="1.1" id="Layer_1" xmlns="http://www.w3.org/2000/svg" xmlns:xlink="http://www.w3.org/1999/xlink" x="0px" y="0px"
	 viewBox="0 0 100 30" style="enable-background:new 0 0 100 30;" xml:space="preserve">
<style type="text/css">
	.st0{fill:#000111;stroke:#F5F5F5;stroke-miterlimit:10;}
	.st1{fill:#FFFFFF;stroke:#000000;stroke-miterlimit:10;}
	.st2{fill:#F5F5F5;stroke:#F5F5F5;stroke-miterlimit:10;}
	.st3{fill:#F7F5F5;stroke:#F5F5F5;stroke-miterlimit:10;}
	.st4{fill:#F7F5F5;}
	.st5{font-family:'SegoeScript';}
	.st6{font-size:15.6955px;}
	.st7{fill:#FFFFFF;stroke:#F5F5F5;stroke-miterlimit:10;}
	.st8{font-size:15.0174px;}
	.st9{font-size:13.506px;}
	.st10{font-size:13.1282px;}
</style>
<path class="st0" d="M18.6,9.7c-2.7,0.1-5,2.3-4.9,5c0,2.8,2.4,5,5.1,4.9c2.6,0,4.9-2.2,4.9-4.8C23.8,12,21.4,9.6,18.6,9.7z"/>
<path class="st1" d="M32.4,13.5"/>
<polygon class="st2" points="12.5,4 22.9,7.1 13.1,2.4 "/>
<circle class="st3" cx="18.5" cy="17" r="1.8"/>
<text transform="matrix(1.1973 0 0 1 -1.0146 20.0767)" class="st4 st5 st6">B</text>
<path class="st1" d="M28.2,20"/>
<path class="st7" d="M22.6,18.5c2.1,2.5,3,2.1,3,2.1"/>
<path class="st2" d="M26.3,3.3c1,15.7,1,15.7,1,15.7L26,18.7"/>
<text transform="matrix(0.918 0 0 1 41.1846 19.7129)" class="st2 st5 st8">K</text>
<text transform="matrix(0.9587 0 0 1 51.5791 18.6982)" class="st2 st5 st9">UM</text>
<path class="st0" d="M29.4,14.6c0-2.8,2.3-4.9,4.9-5c2.8-0.1,5.4,2.1,5.3,5c0,2.9-2.6,5-5.3,4.9C31.8,19.5,29.4,17.4,29.4,14.6z"/>
<polygon class="st2" points="31.1,7.7 35.4,4.3 41.6,8.1 35.8,5.9 "/>
<circle class="st2" cx="34.9" cy="17.4" r="1.8"/>
<path class="st7" d="M38.4,18.6c2.1,2.5,3,2.1,3,2.1"/>
<text transform="matrix(1.0998 0 0 1 73.6914 18.0869)" class="st2 st5 st10">AR</text>
</svg>
